<svg xmlns="http://www.w3.org/2000/svg" viewBox="178 510 925 190" preserveAspectRatio="xMidYMid meet" style="display:block;height:100%;width:auto" role="img" aria-label="DreamAI">
<path fill="none" opacity="1.000000" stroke="none" 
	d="
M1160.000000,1255.000000 
	C773.333313,1255.000000 387.166656,1255.000000 1.000000,1255.000000 
	C1.000000,837.000000 1.000000,419.000000 1.000000,1.000000 
	C419.000000,1.000000 837.000000,1.000000 1255.000000,1.000000 
	C1255.000000,419.000000 1255.000000,837.000000 1255.000000,1255.000000 
	C1223.500000,1255.000000 1192.000000,1255.000000 1160.000000,1255.000000 
M1013.943970,656.038147 
	C1013.943970,656.038147 1013.862549,656.075256 1013.986511,656.784180 
	C1018.796326,666.082886 1023.544983,675.414368 1028.489624,684.640747 
	C1029.140991,685.856201 1030.753662,687.268860 1031.989136,687.335815 
	C1037.412598,687.629700 1042.860962,687.462524 1049.124512,687.462524 
	C1041.182251,672.354492 1033.637695,658.003174 1026.026733,642.962952 
	C1016.318970,624.045593 1006.072449,605.376892 997.167236,586.088989 
	C993.583862,578.327759 989.358154,575.694580 981.180908,576.257568 
	C976.703674,576.565857 974.467163,577.811707 972.431580,581.659424 
	C959.901611,605.344360 947.088440,628.879211 934.438843,652.501160 
	C928.556152,663.486389 922.829407,674.555176 916.652039,685.777954 
	C916.751526,686.171631 916.850952,686.565369 917.782471,687.279297 
	C919.848022,687.228943 921.913635,687.178528 924.729797,687.371094 
	C928.495056,687.284973 932.260376,687.198914 936.891663,687.316284 
	C939.256165,687.246765 941.620605,687.177246 944.755981,687.340698 
	C955.665710,687.340698 966.575500,687.340698 977.619202,687.340698 
	C977.619202,681.489441 977.619202,675.997437 977.619202,670.006470 
	C966.692993,670.006470 956.181519,670.006470 945.048706,670.006470 
	C945.824646,668.220215 946.314392,667.092712 947.318481,665.509888 
	C959.266052,643.214966 971.213623,620.920044 983.394043,598.190552 
	C993.240173,616.927185 1002.726013,634.978394 1012.337158,653.620544 
	C1012.866882,654.455627 1013.396667,655.290771 1013.943970,656.038147 
M1085.727783,595.190552 
	C1085.727783,589.084351 1085.727783,582.978149 1085.727783,576.739929 
	C1079.520264,576.739929 1073.823242,576.739929 1068.081177,576.739929 
	C1068.081177,590.066650 1068.081177,603.013367 1067.929321,616.891846 
	C1067.929321,640.235596 1067.929321,663.579407 1067.929321,686.990845 
	C1073.963501,686.990845 1079.533813,686.990845 1085.536743,686.895996 
	C1085.810669,686.639771 1085.817505,686.376404 1085.678223,685.164185 
	C1085.691650,668.409912 1085.742676,651.655518 1085.706177,634.901306 
	C1085.678101,621.970520 1085.540283,609.040039 1085.727783,595.190552 
M582.800964,686.983948 
	C583.061829,681.580139 583.322754,676.176392 583.605774,670.313477 
	C557.009460,670.313477 531.117798,670.313477 505.047363,670.313477 
	C505.047363,660.123352 505.047363,650.379272 505.047363,640.241028 
	C528.080750,640.241028 550.849731,640.241028 573.804443,640.241028 
	C573.804443,634.580139 573.804443,629.314575 573.804443,623.896545 
	C545.062744,623.896545 516.504639,623.896545 487.858276,623.896545 
	C487.858276,644.841797 487.858276,665.446655 488.072723,686.959167 
	C497.003998,687.088196 505.935394,687.334839 514.866455,687.322937 
	C537.247498,687.293213 559.628418,687.146423 582.800964,686.983948 
M234.500000,670.309570 
	C225.209015,670.309570 215.918015,670.309570 206.194946,670.309570 
	C206.194946,650.147095 206.194946,630.569397 206.194946,611.007568 
	C200.305069,611.007568 194.862579,611.007568 189.395264,611.007568 
	C189.395264,636.519287 189.395264,661.768066 189.395264,687.137634 
	C190.304993,687.243835 190.952988,687.385010 191.601120,687.385620 
	C214.928940,687.406006 238.256805,687.429077 261.584595,687.397827 
	C263.909241,687.394714 266.265594,687.234131 268.553009,686.835571 
	C300.361969,681.293213 321.732574,652.496155 318.904510,619.059387 
	C316.189636,586.961121 290.398773,563.351074 257.992340,563.338379 
	C236.497269,563.329956 215.002167,563.366394 193.507111,563.403687 
	C192.095428,563.406128 190.684067,563.588440 189.416199,563.677063 
	C189.416199,569.485535 189.416199,574.751160 189.416199,580.247437 
	C191.344421,580.342651 192.982925,580.493103 194.621490,580.494019 
	C215.616623,580.505188 236.611740,580.483154 257.606873,580.493591 
	C278.146332,580.503784 293.830322,591.978577 299.641998,611.596558 
	C308.593719,641.814270 286.753387,672.190430 256.491516,670.367737 
	C249.518539,669.947754 242.498444,670.309753 234.500000,670.309570 
M765.969360,597.500122 
	C765.969360,627.312134 765.969360,657.124146 765.969360,687.066467 
	C771.811646,687.066467 777.390076,687.066467 783.489746,687.066467 
	C783.489746,660.586548 783.489746,634.426636 783.489746,606.941467 
	C795.689819,624.185303 807.073608,640.304626 818.494812,656.397461 
	C821.301270,660.351868 826.206726,660.269653 828.968689,656.385986 
	C839.868408,641.059753 850.794312,625.752014 861.726074,610.448608 
	C862.407471,609.494751 863.222839,608.636597 864.776367,606.774231 
	C864.776367,634.375977 864.776367,660.650269 864.776367,687.024170 
	C870.693481,687.024170 876.230957,687.024170 881.769531,687.024170 
	C881.769531,650.106812 881.769531,613.519897 881.769531,576.610718 
	C877.519958,576.610718 873.530029,576.815308 869.572693,576.543762 
	C866.592285,576.339172 864.724792,577.245728 862.997375,579.758362 
	C857.811768,587.301025 852.345764,594.651367 846.967651,602.061096 
	C839.207336,612.752686 831.428040,623.430481 823.371033,634.507141 
	C810.363831,616.023987 797.751770,598.040894 785.028015,580.137085 
	C783.991638,578.678711 782.272217,576.898010 780.732422,576.755493 
	C775.972290,576.314880 771.145569,576.594543 765.967041,576.594543 
	C765.967041,583.548584 765.967041,590.024414 765.969360,597.500122 
M446.542145,687.388306 
	C450.258484,687.388306 453.974854,687.388306 458.622406,687.388306 
	C446.715088,672.949402 435.549347,659.409668 424.302155,645.771240 
	C428.623993,644.258911 432.369873,643.326050 435.777802,641.689514 
	C449.639526,635.033203 456.589203,618.782898 452.888275,602.213684 
	C449.544708,587.244568 437.039856,576.854553 421.253357,576.694580 
	C397.261047,576.451355 373.264404,576.630493 349.269623,576.652039 
	C348.518311,576.652710 347.767212,576.893921 347.172058,576.996216 
	C347.172058,582.585083 347.172058,587.814575 347.172058,593.287537 
	C349.183655,593.287537 350.837982,593.288818 352.492340,593.287292 
	C374.320984,593.267639 396.149658,593.240051 417.978302,593.230957 
	C427.531006,593.226929 433.551758,597.241028 435.999878,605.191895 
	C440.021545,618.253174 431.365662,629.978699 417.567688,630.010010 
	C398.405182,630.053589 379.242432,629.989807 360.079803,629.973572 
	C355.797516,629.969971 351.515228,629.973083 347.034363,629.973083 
	C347.034363,649.390076 347.034363,668.170654 347.034363,687.141357 
	C352.629333,687.141357 358.080902,687.141357 363.989563,687.141357 
	C363.989563,673.507751 363.989563,660.082825 363.989563,646.268311 
	C376.251831,646.268311 388.060730,646.173645 399.864075,646.387268 
	C401.353424,646.414124 403.153320,647.764832 404.233673,649.004028 
	C413.426605,659.548950 422.838074,669.935852 431.428040,680.959290 
	C435.352142,685.995056 439.352051,688.566956 446.542145,687.388306 
M688.355652,626.234802 
	C697.833130,645.296082 707.277405,664.374023 716.849792,683.387512 
	C717.634399,684.945984 719.207336,687.097656 720.557556,687.207397 
	C725.963318,687.646667 731.425720,687.388855 737.475708,687.388855 
	C736.708374,685.767578 736.255249,684.771362 735.770142,683.790955 
	C719.679810,651.269531 703.304138,618.883972 687.706238,586.128113 
	C684.125366,578.608215 680.223083,575.208130 671.812622,576.347046 
	C668.113037,576.848022 665.961121,577.598572 664.254272,581.070190 
	C653.254272,603.444641 642.009827,625.698792 630.885132,648.012146 
	C624.467834,660.883667 618.124634,673.792114 611.392700,687.402527 
	C616.965881,687.402527 621.751038,687.208435 626.510254,687.475830 
	C629.340942,687.634827 630.649170,686.481995 631.776733,684.086426 
	C635.456055,676.269592 639.285217,668.521790 643.151367,660.794800 
	C653.476746,640.158325 663.851440,619.546570 674.549377,598.242310 
	C679.260986,607.758240 683.664673,616.652283 688.355652,626.234802 
M487.539917,579.788574 
	C487.539917,584.223206 487.539917,588.657837 487.539917,593.100037 
	C519.697021,593.100037 551.285461,593.100037 583.090332,593.100037 
	C583.090332,587.535461 583.090332,582.286804 583.090332,576.580383 
	C573.081604,576.580383 563.277588,576.580811 553.473572,576.580261 
	C532.977356,576.579163 512.480774,576.530701 491.985596,576.674316 
	C490.506226,576.684631 489.036652,578.093018 487.539917,579.788574 
M1075.803955,551.530701 
	C1077.603638,551.269714 1079.484131,551.256592 1081.188232,550.701843 
	C1086.599365,548.940186 1090.508789,543.854370 1090.835938,538.487976 
	C1091.229370,532.033936 1088.041748,526.434998 1082.429077,523.829895 
	C1076.783325,521.209473 1071.586548,522.384949 1067.106445,526.291931 
	C1062.679199,530.152649 1061.612061,535.323486 1062.992554,540.882996 
	C1064.533936,547.090942 1069.038086,550.167480 1075.803955,551.530701 
z"/>
<path fill="currentColor" opacity="1.000000" stroke="none" 
	d="
M235.000015,670.310791 
	C242.498444,670.309753 249.518539,669.947754 256.491516,670.367737 
	C286.753387,672.190430 308.593719,641.814270 299.641998,611.596558 
	C293.830322,591.978577 278.146332,580.503784 257.606873,580.493591 
	C236.611740,580.483154 215.616623,580.505188 194.621490,580.494019 
	C192.982925,580.493103 191.344421,580.342651 189.416199,580.247437 
	C189.416199,574.751160 189.416199,569.485535 189.416199,563.677063 
	C190.684067,563.588440 192.095428,563.406128 193.507111,563.403687 
	C215.002167,563.366394 236.497269,563.329956 257.992340,563.338379 
	C290.398773,563.351074 316.189636,586.961121 318.904510,619.059387 
	C321.732574,652.496155 300.361969,681.293213 268.553009,686.835571 
	C266.265594,687.234131 263.909241,687.394714 261.584595,687.397827 
	C238.256805,687.429077 214.928940,687.406006 191.601120,687.385620 
	C190.952988,687.385010 190.304993,687.243835 189.395264,687.137634 
	C189.395264,661.768066 189.395264,636.519287 189.395264,611.007568 
	C194.862579,611.007568 200.305069,611.007568 206.194946,611.007568 
	C206.194946,630.569397 206.194946,650.147095 206.194946,670.309570 
	C215.918015,670.309570 225.209015,670.309570 235.000015,670.310791 
z"/>
<path fill="currentColor" opacity="1.000000" stroke="none" 
	d="
M765.968201,597.000183 
	C765.967041,590.024414 765.967041,583.548584 765.967041,576.594543 
	C771.145569,576.594543 775.972290,576.314880 780.732422,576.755493 
	C782.272217,576.898010 783.991638,578.678711 785.028015,580.137085 
	C797.751770,598.040894 810.363831,616.023987 823.371033,634.507141 
	C831.428040,623.430481 839.207336,612.752686 846.967651,602.061096 
	C852.345764,594.651367 857.811768,587.301025 862.997375,579.758362 
	C864.724792,577.245728 866.592285,576.339172 869.572693,576.543762 
	C873.530029,576.815308 877.519958,576.610718 881.769531,576.610718 
	C881.769531,613.519897 881.769531,650.106812 881.769531,687.024170 
	C876.230957,687.024170 870.693481,687.024170 864.776367,687.024170 
	C864.776367,660.650269 864.776367,634.375977 864.776367,606.774231 
	C863.222839,608.636597 862.407471,609.494751 861.726074,610.448608 
	C850.794312,625.752014 839.868408,641.059753 828.968689,656.385986 
	C826.206726,660.269653 821.301270,660.351868 818.494812,656.397461 
	C807.073608,640.304626 795.689819,624.185303 783.489746,606.941467 
	C783.489746,634.426636 783.489746,660.586548 783.489746,687.066467 
	C777.390076,687.066467 771.811646,687.066467 765.969360,687.066467 
	C765.969360,657.124146 765.969360,627.312134 765.968201,597.000183 
z"/>
<path fill="currentColor" opacity="1.000000" stroke="none" 
	d="
M446.067810,687.392944 
	C439.352051,688.566956 435.352142,685.995056 431.428040,680.959290 
	C422.838074,669.935852 413.426605,659.548950 404.233673,649.004028 
	C403.153320,647.764832 401.353424,646.414124 399.864075,646.387268 
	C388.060730,646.173645 376.251831,646.268311 363.989563,646.268311 
	C363.989563,660.082825 363.989563,673.507751 363.989563,687.141357 
	C358.080902,687.141357 352.629333,687.141357 347.034363,687.141357 
	C347.034363,668.170654 347.034363,649.390076 347.034363,629.973083 
	C351.515228,629.973083 355.797516,629.969971 360.079803,629.973572 
	C379.242432,629.989807 398.405182,630.053589 417.567688,630.010010 
	C431.365662,629.978699 440.021545,618.253174 435.999878,605.191895 
	C433.551758,597.241028 427.531006,593.226929 417.978302,593.230957 
	C396.149658,593.240051 374.320984,593.267639 352.492340,593.287292 
	C350.837982,593.288818 349.183655,593.287537 347.172058,593.287537 
	C347.172058,587.814575 347.172058,582.585083 347.172058,576.996216 
	C347.767212,576.893921 348.518311,576.652710 349.269623,576.652039 
	C373.264404,576.630493 397.261047,576.451355 421.253357,576.694580 
	C437.039856,576.854553 449.544708,587.244568 452.888275,602.213684 
	C456.589203,618.782898 449.639526,635.033203 435.777802,641.689514 
	C432.369873,643.326050 428.623993,644.258911 424.302155,645.771240 
	C435.549347,659.409668 446.715088,672.949402 458.622406,687.388306 
	C453.974854,687.388306 450.258484,687.388306 446.067810,687.392944 
z"/>
<path fill="currentColor" opacity="1.000000" stroke="none" 
	d="
M688.212036,625.890564 
	C683.664673,616.652283 679.260986,607.758240 674.549377,598.242310 
	C663.851440,619.546570 653.476746,640.158325 643.151367,660.794800 
	C639.285217,668.521790 635.456055,676.269592 631.776733,684.086426 
	C630.649170,686.481995 629.340942,687.634827 626.510254,687.475830 
	C621.751038,687.208435 616.965881,687.402527 611.392700,687.402527 
	C618.124634,673.792114 624.467834,660.883667 630.885132,648.012146 
	C642.009827,625.698792 653.254272,603.444641 664.254272,581.070190 
	C665.961121,577.598572 668.113037,576.848022 671.812622,576.347046 
	C680.223083,575.208130 684.125366,578.608215 687.706238,586.128113 
	C703.304138,618.883972 719.679810,651.269531 735.770142,683.790955 
	C736.255249,684.771362 736.708374,685.767578 737.475708,687.388855 
	C731.425720,687.388855 725.963318,687.646667 720.557556,687.207397 
	C719.207336,687.097656 717.634399,684.945984 716.849792,683.387512 
	C707.277405,664.374023 697.833130,645.296082 688.212036,625.890564 
z"/>
<path fill="currentColor" opacity="1.000000" stroke="none" 
	d="
M487.858276,686.051453 
	C487.858276,665.446655 487.858276,644.841797 487.858276,623.896545 
	C516.504639,623.896545 545.062744,623.896545 573.804443,623.896545 
	C573.804443,629.314575 573.804443,634.580139 573.804443,640.241028 
	C550.849731,640.241028 528.080750,640.241028 505.047363,640.241028 
	C505.047363,650.379272 505.047363,660.123352 505.047363,670.313477 
	C531.117798,670.313477 557.009460,670.313477 583.605774,670.313477 
	C583.322754,676.176392 583.061829,681.580139 582.115601,686.711548 
	C580.293030,686.292786 579.155884,686.018860 578.018738,686.018616 
	C547.965271,686.012329 517.911743,686.034302 487.858276,686.051453 
z"/>
<path fill="#14B5C9" opacity="1.000000" stroke="none" 
	d="
M917.031982,685.586060 
	C922.829407,674.555176 928.556152,663.486389 934.438843,652.501160 
	C947.088440,628.879211 959.901611,605.344360 972.431580,581.659424 
	C974.467163,577.811707 976.703674,576.565857 981.180908,576.257568 
	C989.358154,575.694580 993.583862,578.327759 997.167236,586.088989 
	C1006.072449,605.376892 1016.318970,624.045593 1026.016602,643.688965 
	C1023.744873,650.162170 1020.012146,654.377258 1013.862549,656.075256 
	C1013.862549,656.075256 1013.943970,656.038147 1013.950256,655.731323 
	C1013.375000,654.626099 1012.793457,653.827820 1012.211853,653.029541 
	C1002.726013,634.978394 993.240173,616.927185 983.394043,598.190552 
	C971.213623,620.920044 959.266052,643.214966 946.771790,665.574524 
	C942.376160,661.937439 940.676758,665.897888 938.781128,667.963074 
	C936.597290,670.342102 936.323242,673.057007 939.410034,675.142334 
	C942.009155,676.898254 944.840637,678.340210 947.285828,680.278748 
	C948.240723,681.035889 948.837585,682.785522 948.789185,684.052185 
	C948.762756,684.743835 947.066040,685.402161 946.085388,686.015930 
	C945.418762,686.433289 944.687500,686.747498 943.985107,687.107727 
	C941.620605,687.177246 939.256165,687.246765 936.255371,686.932373 
	C934.358826,685.556885 933.236023,684.204895 931.805664,683.659912 
	C929.750244,682.876709 927.450562,682.344543 925.301392,682.473755 
	C924.769287,682.505676 924.415100,685.497131 923.979187,687.128174 
	C921.913635,687.178528 919.848022,687.228943 917.360474,686.887878 
	C916.903992,686.186218 916.935181,685.882751 917.031982,685.586060 
z"/>
<path fill="currentColor" opacity="1.000000" stroke="none" 
	d="
M487.551239,579.320007 
	C489.036652,578.093018 490.506226,576.684631 491.985596,576.674316 
	C512.480774,576.530701 532.977356,576.579163 553.473572,576.580261 
	C563.277588,576.580811 573.081604,576.580383 583.090332,576.580383 
	C583.090332,582.286804 583.090332,587.535461 583.090332,593.100037 
	C551.285461,593.100037 519.697021,593.100037 487.539917,593.100037 
	C487.539917,588.657837 487.539917,584.223206 487.551239,579.320007 
z"/>
<path fill="#0A90B8" opacity="1.000000" stroke="none" 
	d="
M1085.104126,686.990845 
	C1079.533813,686.990845 1073.963501,686.990845 1067.929321,686.990845 
	C1067.929321,663.579407 1067.929321,640.235596 1068.270264,616.227661 
	C1071.262451,612.205383 1073.948364,610.944641 1077.536621,614.629028 
	C1079.004028,616.135742 1081.303345,616.832153 1084.009644,618.332581 
	C1084.009644,611.648132 1083.914062,606.017334 1084.075684,600.393921 
	C1084.116943,598.953735 1084.970703,597.536926 1085.451294,596.109375 
	C1085.540283,609.040039 1085.678101,621.970520 1085.706177,634.901306 
	C1085.742676,651.655518 1085.691650,668.409912 1085.484375,685.747437 
	C1085.144165,686.526917 1085.082031,686.746948 1085.104126,686.990845 
z"/>
<path fill="#0A90B8" opacity="1.000000" stroke="none" 
	d="
M1013.924561,656.429688 
	C1020.012146,654.377258 1023.744873,650.162170 1026.049805,644.033386 
	C1033.637695,658.003174 1041.182251,672.354492 1049.124512,687.462524 
	C1042.860962,687.462524 1037.412598,687.629700 1031.989136,687.335815 
	C1030.753662,687.268860 1029.140991,685.856201 1028.489624,684.640747 
	C1023.544983,675.414368 1018.796326,666.082886 1013.924561,656.429688 
z"/>
<path fill="#14B5C9" opacity="1.000000" stroke="none" 
	d="
M1085.589600,595.649963 
	C1084.970703,597.536926 1084.116943,598.953735 1084.075684,600.393921 
	C1083.914062,606.017334 1084.009644,611.648132 1084.009644,618.332581 
	C1081.303345,616.832153 1079.004028,616.135742 1077.536621,614.629028 
	C1073.948364,610.944641 1071.262451,612.205383 1068.346191,615.761780 
	C1068.081177,603.013367 1068.081177,590.066650 1068.081177,576.739929 
	C1073.823242,576.739929 1079.520264,576.739929 1085.727783,576.739929 
	C1085.727783,582.978149 1085.727783,589.084351 1085.589600,595.649963 
z"/>
<path fill="#14B5C9" opacity="1.000000" stroke="none" 
	d="
M1075.414551,551.481323 
	C1069.038086,550.167480 1064.533936,547.090942 1062.992554,540.882996 
	C1061.612061,535.323486 1062.679199,530.152649 1067.106445,526.291931 
	C1071.586548,522.384949 1076.783325,521.209473 1082.429077,523.829895 
	C1088.041748,526.434998 1091.229370,532.033936 1090.835938,538.487976 
	C1090.508789,543.854370 1086.599365,548.940186 1081.188232,550.701843 
	C1079.484131,551.256592 1077.603638,551.269714 1075.414551,551.481323 
z"/>
<path fill="#0A90B8" opacity="1.000000" stroke="none" 
	d="
M944.370544,687.224243 
	C944.687500,686.747498 945.418762,686.433289 946.085388,686.015930 
	C947.066040,685.402161 948.762756,684.743835 948.789185,684.052185 
	C948.837585,682.785522 948.240723,681.035889 947.285828,680.278748 
	C944.840637,678.340210 942.009155,676.898254 939.410034,675.142334 
	C936.323242,673.057007 936.597290,670.342102 938.781128,667.963074 
	C940.676758,665.897888 942.376160,661.937439 946.514648,665.802246 
	C946.314392,667.092712 945.824646,668.220215 945.048706,670.006470 
	C956.181519,670.006470 966.692993,670.006470 977.619202,670.006470 
	C977.619202,675.997437 977.619202,681.489441 977.619202,687.340698 
	C966.575500,687.340698 955.665710,687.340698 944.370544,687.224243 
z"/>
<path fill="currentColor" opacity="1.000000" stroke="none" 
	d="
M487.965515,686.505310 
	C517.911743,686.034302 547.965271,686.012329 578.018738,686.018616 
	C579.155884,686.018860 580.293030,686.292786 581.719727,686.742920 
	C559.628418,687.146423 537.247498,687.293213 514.866455,687.322937 
	C505.935394,687.334839 497.003998,687.088196 487.965515,686.505310 
z"/>
<path fill="#0A90B8" opacity="1.000000" stroke="none" 
	d="
M924.354492,687.249634 
	C924.415100,685.497131 924.769287,682.505676 925.301392,682.473755 
	C927.450562,682.344543 929.750244,682.876709 931.805664,683.659912 
	C933.236023,684.204895 934.358826,685.556885 935.822327,686.830566 
	C932.260376,687.198914 928.495056,687.284973 924.354492,687.249634 
z"/>
<path fill="#0A90B8" opacity="1.000000" stroke="none" 
	d="
M1012.274536,653.325073 
	C1012.793457,653.827820 1013.375000,654.626099 1013.941467,655.775146 
	C1013.396667,655.290771 1012.866882,654.455627 1012.274536,653.325073 
z"/>
<path fill="#0A90B8" opacity="1.000000" stroke="none" 
	d="
M916.841980,685.682007 
	C916.935181,685.882751 916.903992,686.186218 916.944397,686.727783 
	C916.850952,686.565369 916.751526,686.171631 916.841980,685.682007 
z"/>
<path fill="#14B5C9" opacity="1.000000" stroke="none" 
	d="
M1085.320435,686.943420 
	C1085.082031,686.746948 1085.144165,686.526917 1085.423828,686.218262 
	C1085.817505,686.376404 1085.810669,686.639771 1085.320435,686.943420 
z"/>
</svg>